<svg xmlns="http://www.w3.org/2000/svg" viewBox="0 0 203.24 50"><defs><style>.a{fill:#007eaf;opacity:0;}.b{fill:#fff;}</style></defs><title>altran world white_2</title><rect class="a" x="0.24" width="203" height="50"/><path class="b" d="M9.52,16.33h0c-2.15,0-4.72.41-6.38,1.71-1.31,1,1.33,2.28,3.68,1.18A5.69,5.69,0,0,1,9,18.71c3.62,0,4.82,1.51,4.94,4.06-1.56,0-3.26,0-5.39.08C2.84,23,0,24.74,0,28.29c0,3.11,3,5.38,7.21,5.38a55.49,55.49,0,0,0,9.23-.89c1.31-1.31,1.11-10.66,1.11-10.66C17.55,18,14,16.33,9.52,16.33ZM8,31.14c-2.91,0-4.23-1.6-4.23-2.95,0-2,2-2.5,5.34-2.62,2.06-.1,3.66-.1,4.88-.1C13.82,28.89,15,31.14,8,31.14Z"/><path class="b" d="M23.28,26.67V16.52H19.57V29.35c0,3.72,3.71,3.71,3.71,3.71h9.11v-2.7H27C23.28,30.36,23.28,30.35,23.28,26.67Z"/><path class="b" d="M28.75,19.22h3.59c2.72,0,2.73,0,2.73,2.65V33.06h3.71V21.87c0-2.64,0-2.65,2.66-2.65h3.63v-2.7H28.75Z"/><path class="b" d="M64,21.48c0-3.27-2.73-5-6.36-5H47.44V33.06h3.71V26.54h4.49c3.36,0,4.56.78,4.56,3.91v2.62H64V30c0-2.41-.48-3.89-2.51-4.5A4.68,4.68,0,0,0,64,21.48ZM56.2,24H51.15V19.22h5.2c2,0,3.82.2,3.83,2.2S58.38,24,56.2,24Z"/><path class="b" d="M94.14,16.33h0c-4.72,0-8.25,2.36-8.24,7.15v9.58h3.49V23.48c0-2.68,1.63-4.34,4.75-4.35s4.78,1.66,4.78,4.35v9.58h3.49V23.48C102.37,18.7,98.85,16.33,94.14,16.33Z"/><path class="b" d="M75.43,16.33h0c-2.15,0-4.72.41-6.38,1.71-1.31,1,1.33,2.28,3.69,1.18A5.65,5.65,0,0,1,75,18.71c3.61,0,4.81,1.51,4.93,4.06-1.56,0-3.26,0-5.39.08-5.75.14-8.59,1.89-8.59,5.44,0,3.11,3,5.38,7.21,5.38a55.49,55.49,0,0,0,9.23-.89c1.31-1.31,1.11-10.66,1.11-10.66C83.46,18,79.93,16.33,75.43,16.33ZM73.9,31.14c-2.91,0-4.23-1.6-4.23-2.95,0-2,2-2.5,5.34-2.62,2.06-.1,3.66-.1,4.88-.1C79.74,28.89,80.86,31.14,73.9,31.14Z"/><path class="b" d="M117.18,33.59l-4.1-17.18h3.55l2.59,11.8,3.14-11.8h4.12l3,12,2.63-12h3.49l-4.17,17.18h-3.68l-3.42-12.84-3.41,12.84Z"/><path class="b" d="M136.69,25.11a10.84,10.84,0,0,1,.79-4.41,8,8,0,0,1,1.6-2.36,6.55,6.55,0,0,1,2.22-1.54,9.29,9.29,0,0,1,3.7-.68,8.08,8.08,0,0,1,6.08,2.35A9,9,0,0,1,153.35,25a9,9,0,0,1-2.26,6.51,8,8,0,0,1-6,2.35,8.09,8.09,0,0,1-6.1-2.34A8.83,8.83,0,0,1,136.69,25.11Zm3.58-.12a6.42,6.42,0,0,0,1.34,4.42,4.63,4.63,0,0,0,6.83,0,6.53,6.53,0,0,0,1.33-4.48,6.39,6.39,0,0,0-1.3-4.4,4.78,4.78,0,0,0-6.89,0A6.47,6.47,0,0,0,140.27,25Z"/><path class="b" d="M156.07,33.59V16.41h7.3a12.55,12.55,0,0,1,4,.46,4,4,0,0,1,2,1.65,5,5,0,0,1,.75,2.71A4.56,4.56,0,0,1,169,24.42a5.47,5.47,0,0,1-3.4,1.59,8.31,8.31,0,0,1,1.86,1.44,19.24,19.24,0,0,1,2,2.79l2.1,3.35h-4.15l-2.51-3.74A23.31,23.31,0,0,0,163,27.33a2.58,2.58,0,0,0-1-.72,5.7,5.7,0,0,0-1.74-.19h-.71v7.17Zm3.47-9.91h2.57a12.63,12.63,0,0,0,3.12-.22,1.91,1.91,0,0,0,1-.72,2.3,2.3,0,0,0,.35-1.29,2,2,0,0,0-.46-1.4,2.1,2.1,0,0,0-1.31-.67c-.28,0-1.12-.06-2.53-.06h-2.71Z"/><path class="b" d="M173.49,33.59v-17H177V30.7h8.62v2.89Z"/><path class="b" d="M188,16.41h6.34a12.32,12.32,0,0,1,3.27.33,5.74,5.74,0,0,1,2.59,1.58,7.49,7.49,0,0,1,1.64,2.78,12.55,12.55,0,0,1,.56,4.06,11.33,11.33,0,0,1-.52,3.66,7.72,7.72,0,0,1-1.84,3,6.22,6.22,0,0,1-2.44,1.37,10.61,10.61,0,0,1-3.07.36H188Zm3.47,2.91V30.7h2.59a9.35,9.35,0,0,0,2.1-.17,3.26,3.26,0,0,0,1.4-.71,3.73,3.73,0,0,0,.91-1.66,11.4,11.4,0,0,0,.35-3.15,10.42,10.42,0,0,0-.35-3.06,4,4,0,0,0-1-1.66,3.25,3.25,0,0,0-1.6-.81,15.9,15.9,0,0,0-2.85-.16Z"/></svg>